<svg version="1.1" xmlns="http://www.w3.org/2000/svg" width="1027px" height="296px" transform="rotate(0) scale(1, 1)">
<path d="M0 0 C0.70640121 -0.00335861 1.41280243 -0.00671722 2.14060974 -0.01017761 C4.4768958 -0.0196749 6.81310989 -0.02163115 9.14941406 -0.02270508 C10.78688587 -0.02592221 12.4243574 -0.02928662 14.06182861 -0.03279114 C17.50167504 -0.03878198 20.94149638 -0.04063145 24.38134766 -0.04003906 C28.74490954 -0.03993829 33.10830558 -0.05350188 37.47182846 -0.07081127 C40.8609284 -0.0820565 44.24999009 -0.08395436 47.63910675 -0.08342934 C49.24471856 -0.08459411 50.85033186 -0.08892922 52.45592499 -0.0967617 C70.28021559 -0.17546526 89.63982842 -0.03719632 103.92285156 12.15307617 C119.26022584 27.49045044 121.06224446 50.04312819 121.08300781 70.59057617 C121.08633621 71.75926239 121.08966461 72.92794861 121.09309387 74.13204956 C121.09813218 76.59445811 121.10050316 79.05687341 121.1003418 81.51928711 C121.10252044 85.23848044 121.12068831 88.95737296 121.13964844 92.67651367 C121.24922699 137.6054142 121.24922699 137.6054142 107.91503906 154.14526367 C107.29628906 154.97541992 106.67753906 155.80557617 106.04003906 156.66088867 C98.1647837 165.86798869 85.58891934 169.69446181 73.90423584 170.93484497 C66.96405362 171.42338562 59.99060152 171.33279297 53.03613281 171.34838867 C52.18279924 171.35121605 51.32946568 171.35404343 50.45027351 171.35695648 C45.94121117 171.37187182 41.43218024 171.38115167 36.9230957 171.38549805 C32.28418388 171.39099559 27.64556363 171.41507249 23.00674343 171.44347 C19.41981674 171.46214091 15.83296002 171.46730418 12.24598885 171.46883392 C10.53606624 171.47184696 8.82614446 171.47982956 7.11627007 171.4930191 C4.72141355 171.51018636 2.32726711 171.50817461 -0.06762695 171.50170898 C-1.11133705 171.51553116 -1.11133705 171.51553116 -2.1761322 171.52963257 C-8.01343974 171.48057807 -13.57793416 170.23841696 -18.14355469 166.42651367 C-18.59859375 165.83870117 -19.05363281 165.25088867 -19.52246094 164.64526367 C-19.99554687 164.05745117 -20.46863281 163.46963867 -20.95605469 162.86401367 C-23.22678979 159.40683912 -23.21590516 156.34197292 -23.23213196 152.32684326 C-23.23928726 151.11278305 -23.24644257 149.89872284 -23.2538147 148.64787292 C-23.25665492 147.30032374 -23.25936665 145.95277428 -23.26196289 144.60522461 C-23.26822868 143.18758477 -23.27487558 141.76994658 -23.28187561 140.35231018 C-23.30290536 135.69476462 -23.3132772 131.03721877 -23.32324219 126.37963867 C-23.3272902 124.77536248 -23.33140713 123.17108645 -23.33559227 121.56681061 C-23.35464182 114.02923548 -23.36887316 106.49167014 -23.37720424 98.95407557 C-23.38697518 90.25768286 -23.41329179 81.56154477 -23.45370513 72.86524177 C-23.4838812 66.14070921 -23.49867454 59.41624958 -23.50198525 52.69165063 C-23.50433412 48.67668118 -23.51327297 44.66198382 -23.53844643 40.6470871 C-23.56175838 36.86804116 -23.56594811 33.08944586 -23.55568504 29.3103466 C-23.55519032 27.9264698 -23.56149219 26.54257057 -23.57524109 25.15876198 C-23.69717601 12.15428418 -23.69717601 12.15428418 -19.08496094 6.14526367 C-17.08496094 4.40307617 -17.08496094 4.40307617 -15.08496094 3.27026367 C-14.42496094 2.8809668 -13.76496094 2.49166992 -13.08496094 2.09057617 C-8.74714359 0.04027969 -4.77272913 0.01426625 0 0 Z M7.91503906 32.14526367 C7.91503906 67.45526367 7.91503906 102.76526367 7.91503906 139.14526367 C23.50753906 139.23807617 23.50753906 139.23807617 39.41503906 139.33276367 C42.68345703 139.36007568 45.951875 139.3873877 49.31933594 139.41552734 C51.92414989 139.42429324 54.52896797 139.43193693 57.13378906 139.43823242 C57.80124146 139.44607254 58.46869385 139.45391266 59.15637207 139.46199036 C71.79118823 139.63073722 71.79118823 139.63073722 82.72753906 133.89526367 C87.07680815 128.4276111 88.43026592 122.83798202 89.08691406 115.98901367 C89.16649353 115.2131189 89.246073 114.43722412 89.32806396 113.63781738 C90.12009522 105.1859741 90.21706233 96.74229518 90.17578125 88.2590332 C90.16504478 85.64665541 90.17576436 83.03496488 90.18847656 80.42260742 C90.19752795 72.03944684 89.96169665 63.7108874 89.14941406 55.36401367 C89.05832367 54.295401 89.05832367 54.295401 88.96539307 53.2052002 C88.23868609 46.71917247 85.99453614 40.69605816 81.04003906 36.27026367 C75.92711306 32.79347399 71.48613527 31.89399452 65.35888672 31.91821289 C63.41091187 31.91857544 63.41091187 31.91857544 61.42358398 31.91894531 C60.05875451 31.92901344 58.69392697 31.93934642 57.32910156 31.94995117 C55.45097778 31.95297241 55.45097778 31.95297241 53.53491211 31.95605469 C48.86991702 31.96649723 44.20497426 31.99441979 39.54003906 32.02026367 C29.10378906 32.06151367 18.66753906 32.10276367 7.91503906 32.14526367 Z " fill="#fe1515" transform="translate(38.0849609375,10.854736328125)"/>
<path d="M0 0 C0.89207153 -0.00335861 1.78414307 -0.00671722 2.70324707 -0.01017761 C5.62737449 -0.01961292 8.55144428 -0.02162638 11.47558594 -0.02270508 C13.51723249 -0.02592073 15.55887882 -0.02928503 17.6005249 -0.03279114 C21.86715225 -0.03876228 26.13375939 -0.0406329 30.40039062 -0.04003906 C35.87031398 -0.03993707 41.34010861 -0.05363617 46.81000137 -0.07081127 C51.02041217 -0.08191591 55.23079157 -0.08395881 59.44121552 -0.08342934 C61.45866086 -0.08460996 63.476107 -0.08903637 65.4935379 -0.0967617 C68.30828496 -0.10653881 71.12274856 -0.10369353 73.9375 -0.09765625 C74.77081848 -0.10327576 75.60413696 -0.10889526 76.46270752 -0.11468506 C83.84296421 -0.07437932 83.84296421 -0.07437932 86.70996094 2.14526367 C88.28383859 6.86689663 87.97708813 11.6371273 88.02246094 16.58276367 C88.05146484 17.63270508 88.08046875 18.68264648 88.11035156 19.7644043 C88.11873047 20.77567383 88.12710938 21.78694336 88.13574219 22.82885742 C88.15761597 24.21415649 88.15761597 24.21415649 88.17993164 25.62744141 C87.53471841 29.08410845 86.52824957 30.03936287 83.70996094 32.14526367 C80.72256813 32.53266929 78.10344373 32.67926366 75.11767578 32.64355469 C73.81951683 32.65183289 73.81951683 32.65183289 72.49513245 32.66027832 C70.6186894 32.66959556 68.74218313 32.66970575 66.8657341 32.66168404 C63.89890591 32.64907646 60.93301102 32.66032157 57.96621704 32.67771912 C52.74237589 32.70443781 47.51876294 32.71001384 42.29486084 32.70861816 C33.92582974 32.70639028 25.55708004 32.72036505 17.18815994 32.76420403 C14.25976168 32.774081 11.33180144 32.76530661 8.40341187 32.75550842 C6.61675728 32.76164929 4.83010511 32.7685599 3.04345703 32.77636719 C2.22471603 32.76864792 1.40597504 32.76092865 0.56242371 32.75297546 C-1.92487052 32.74012533 -1.92487052 32.74012533 -5.29003906 33.14526367 C-10.19280787 40.49941688 -8.96057895 52.32260084 -7.98144531 60.82495117 C-7.20803883 64.61560221 -7.20803883 64.61560221 -4.63198853 67.32852173 C-1.52773528 68.41111291 1.14232379 68.39719753 4.43115234 68.40063477 C5.09842346 68.40425522 5.76569458 68.40787567 6.45318604 68.41160583 C7.89909119 68.41848596 9.34502225 68.42100787 10.79094315 68.41965866 C13.08772409 68.41869012 15.38404116 68.43167662 17.68075562 68.44863892 C24.20982205 68.49479338 30.73884241 68.51948371 37.26806641 68.52612305 C41.26699321 68.53116903 45.26543893 68.55557899 49.26420212 68.59144974 C50.77984081 68.60118187 52.29554628 68.60361603 53.81120682 68.59827805 C64.25440415 68.56324429 73.38810171 69.08565969 81.52246094 76.27026367 C89.85089696 85.46297136 92.01372391 96.7347584 92.04589844 108.75463867 C92.05588364 110.08764008 92.05588364 110.08764008 92.06607056 111.4475708 C92.07613094 113.31650749 92.08088964 115.18547962 92.08056641 117.05444336 C92.08492866 119.87439894 92.12128872 122.69277257 92.15917969 125.51245117 C92.24919466 139.78884103 91.10990168 153.23751333 80.70996094 164.14526367 C75.27960726 168.11712709 69.99784376 170.25489627 63.26292419 170.29243469 C62.37827484 170.29959 61.49362549 170.3067453 60.58216858 170.31411743 C59.61943527 170.31680634 58.65670197 170.31949524 57.66479492 170.32226562 C56.64490479 170.32883682 55.62501465 170.33540802 54.57421875 170.34217834 C51.20149665 170.36188066 47.82881889 170.37356358 44.45605469 170.38354492 C43.30504839 170.38762045 42.15404209 170.39169598 40.96815681 170.395895 C34.88282577 170.41673683 28.7975172 170.43105002 22.7121582 170.44042969 C16.41461605 170.45152515 10.11742422 170.48596666 3.82000637 170.52560139 C-1.01401957 170.55167728 -5.8479606 170.56011319 -10.6820507 170.56371117 C-13.00457071 170.56859597 -15.32708646 170.5802633 -17.64953804 170.59874916 C-20.89140277 170.62296125 -24.13234113 170.62220898 -27.37426758 170.61523438 C-28.82140388 170.63444946 -28.82140388 170.63444946 -30.29777527 170.65405273 C-36.77814869 170.60302413 -36.77814869 170.60302413 -39.38452148 168.27226257 C-41.234953 163.92572542 -40.75906858 159.29443483 -40.72753906 154.64526367 C-40.74751953 153.59983398 -40.7675 152.5544043 -40.78808594 151.47729492 C-40.78744141 150.47053711 -40.78679688 149.4637793 -40.78613281 148.42651367 C-40.78798584 147.5093457 -40.78983887 146.59217773 -40.79174805 145.6472168 C-40.10137489 142.20442162 -39.11774286 141.24039332 -36.29003906 139.14526367 C-33.31018302 138.56213684 -30.3742044 138.63283973 -27.34643555 138.67871094 C-26.44358826 138.67640472 -25.54074097 138.67409851 -24.61053467 138.67172241 C-22.65221336 138.66909379 -20.69386364 138.67553479 -18.7355938 138.68997383 C-15.63828425 138.71183116 -12.54195283 138.70815358 -9.44459534 138.69749451 C-1.75436436 138.6758083 5.93564969 138.69323975 13.62585449 138.71899414 C20.12683412 138.74035474 26.62718794 138.74240381 33.12815666 138.7160778 C36.18361996 138.71171313 39.23800878 138.73640496 42.29335022 138.76161194 C44.16082241 138.75634312 46.02829127 138.74962198 47.89575195 138.74121094 C48.74830063 138.75612076 49.6008493 138.77103058 50.47923279 138.78639221 C53.10799876 138.81136712 53.10799876 138.81136712 56.70996094 138.14526367 C59.87286118 134.48534203 60.09406901 131.42144731 60.10839844 126.67260742 C60.11226562 125.44348633 60.11613281 124.21436523 60.12011719 122.94799805 C60.10851562 121.6724707 60.09691406 120.39694336 60.08496094 119.08276367 C60.0965625 117.80336914 60.10816406 116.52397461 60.12011719 115.20581055 C60.11625 113.97797852 60.11238281 112.75014648 60.10839844 111.48510742 C60.10332275 109.8046936 60.10332275 109.8046936 60.09814453 108.09033203 C59.65026231 104.69234254 59.15471723 103.52168199 56.70996094 101.14526367 C53.5753232 100.54438831 53.5753232 100.54438831 49.91870117 100.64697266 C48.88875282 100.63869446 48.88875282 100.63869446 47.83799744 100.63024902 C46.34679968 100.62092488 44.8555223 100.62082738 43.36431694 100.62884331 C40.99597994 100.64147785 38.62880807 100.63017703 36.26051331 100.61280823 C32.07706883 100.58606374 27.89390889 100.58051324 23.71038818 100.58190918 C17.03976845 100.5841332 10.36950501 100.56972777 3.69902229 100.52632332 C1.3803259 100.51656479 -0.93780115 100.5251655 -3.25648499 100.53501892 C-13.22564025 100.52120855 -23.16853406 100.27940847 -30.76269531 92.98901367 C-40.15495989 81.65103699 -40.79500774 66.48649629 -40.68115234 52.44287109 C-40.66503396 50.08201563 -40.68110723 47.72286526 -40.70019531 45.36206055 C-40.72021908 31.71156995 -39.24580405 18.79601503 -29.59082031 8.29760742 C-21.01731109 0.45621809 -11.03173161 -0.00605828 0 0 Z " fill="#130871" transform="translate(588.2900390625,10.854736328125)"/>
<path d="M0 0 C0.88071167 -0.0049649 1.76142334 -0.00992981 2.66882324 -0.01504517 C5.55567223 -0.02954333 8.44246644 -0.03644483 11.3293457 -0.04199219 C12.81492446 -0.04623325 12.81492446 -0.04623325 14.33051491 -0.05056 C19.56230558 -0.0654956 24.79406904 -0.07476303 30.02587891 -0.07910156 C35.42625783 -0.0846057 40.8263871 -0.1086905 46.22668743 -0.13707352 C50.38652789 -0.15568683 54.54630771 -0.1609046 58.70618629 -0.16243744 C60.69769481 -0.1654629 62.68920229 -0.17348784 64.68066978 -0.18662262 C67.46178786 -0.20367015 70.24228844 -0.20180707 73.0234375 -0.1953125 C73.84380997 -0.20452728 74.66418243 -0.21374207 75.50941467 -0.22323608 C80.06726306 -0.18988082 83.15498553 0.13280547 86.81762695 3.16113281 C87.44873047 5.84082031 87.44873047 5.84082031 87.4465332 9.03613281 C87.4484668 10.18597656 87.45040039 11.33582031 87.45239258 12.52050781 C87.42854492 13.72191406 87.40469727 14.92332031 87.38012695 16.16113281 C87.39108398 17.36253906 87.40204102 18.56394531 87.41333008 19.80175781 C87.33947108 28.58605424 87.33947108 28.58605424 85.32902527 30.80158997 C81.68322535 32.77523993 78.14698784 32.60052387 74.10180664 32.59350586 C72.78419846 32.60879333 72.78419846 32.60879333 71.43997192 32.62438965 C68.5397507 32.65455711 65.63985957 32.66379135 62.73950195 32.67285156 C60.72738545 32.68969546 58.71527948 32.70784531 56.70318604 32.72724915 C51.40962009 32.77478661 46.11609689 32.80457181 40.8223877 32.83068848 C35.41967325 32.86047504 30.01710611 32.90701192 24.61450195 32.95214844 C14.01562061 33.03822423 3.41670899 33.10555056 -7.18237305 33.16113281 C-8.4239347 39.04131048 -8.3664607 44.72813393 -8.36987305 50.72363281 C-8.38824219 52.4280957 -8.38824219 52.4280957 -8.40698242 54.16699219 C-8.40891602 55.25947266 -8.41084961 56.35195312 -8.4128418 57.47753906 C-8.41695068 58.47213135 -8.42105957 59.46672363 -8.42529297 60.49145508 C-8.17138193 63.28192469 -7.82409609 64.89269391 -6.18237305 67.16113281 C-2.6654534 68.43066893 0.85026906 68.2923042 4.5546875 68.30297852 C5.22356491 68.30645294 5.89244232 68.30992737 6.58158875 68.31350708 C8.03077557 68.3208435 9.47997349 68.32620012 10.92917442 68.32979774 C13.22979579 68.33699367 15.53020761 68.35268487 17.83076477 68.37113953 C24.37087062 68.42345116 30.91086145 68.47153113 37.45117188 68.48706055 C41.45660933 68.49719275 45.46151778 68.52664934 49.46674538 68.56838036 C50.98599034 68.5806221 52.50531026 68.58582419 54.02460289 68.58358192 C65.01109248 68.57136086 73.93033027 69.62512362 82.25512695 77.35253906 C91.76454269 88.35968777 92.34042934 103.87369759 92.26367188 117.69873047 C92.25516055 120.02694301 92.28404244 122.35269166 92.31567383 124.68066406 C92.37730065 137.80899897 91.07781058 152.00891315 81.81762695 162.16113281 C74.30780204 169.10021103 67.4247875 170.461757 57.43774414 170.41992188 C55.89043106 170.42517883 55.89043106 170.42517883 54.31185913 170.43054199 C50.91267103 170.43932322 47.51369205 170.43352455 44.11450195 170.42675781 C41.75132202 170.42810508 39.38814236 170.43004613 37.02496338 170.43255615 C32.0788712 170.43550218 27.13285135 170.43122493 22.18676758 170.421875 C15.83547618 170.41045585 9.48435336 170.41705887 3.13306808 170.42901993 C-1.7429533 170.43623128 -6.6189344 170.43395437 -11.49495697 170.42876434 C-13.83781708 170.42742713 -16.1806808 170.42907805 -18.52353668 170.43372345 C-21.7891466 170.43877946 -25.05447921 170.43109254 -28.32006836 170.41992188 C-29.78191055 170.42599457 -29.78191055 170.42599457 -31.27328491 170.43218994 C-32.15926361 170.42655029 -33.04524231 170.42091064 -33.95806885 170.4151001 C-34.7301128 170.41434605 -35.50215675 170.413592 -36.29759598 170.41281509 C-38.18237305 170.16113281 -38.18237305 170.16113281 -40.18237305 168.16113281 C-40.66846607 163.8675834 -40.55277217 159.54155199 -40.55737305 155.22363281 C-40.58186523 154.01771484 -40.60635742 152.81179687 -40.6315918 151.56933594 C-40.63545898 150.41498047 -40.63932617 149.260625 -40.64331055 148.07128906 C-40.65152832 147.01047119 -40.65974609 145.94965332 -40.66821289 144.85668945 C-40.18237305 142.16113281 -40.18237305 142.16113281 -38.7119751 140.51670837 C-34.93274506 138.49147604 -31.44829902 138.74587918 -27.22290039 138.77636719 C-25.86622002 138.76830803 -25.86622002 138.76830803 -24.48213196 138.76008606 C-22.52056387 138.75030975 -20.55895255 138.74736347 -18.59736252 138.7504425 C-15.49622628 138.75491466 -12.3956624 138.74093876 -9.29458618 138.7220459 C-1.59569144 138.67898753 6.10319098 138.66799165 13.80218506 138.65582275 C20.31181343 138.64431976 26.82118064 138.62083735 33.33069992 138.58113098 C36.39201371 138.56750378 39.45298024 138.57174129 42.51431274 138.57653809 C44.38186088 138.56720288 46.2494051 138.55703543 48.11694336 138.54589844 C48.97308731 138.55204666 49.82923126 138.55819489 50.71131897 138.56452942 C53.30887546 138.57267398 53.30887546 138.57267398 56.81762695 138.16113281 C60.58225568 132.51418972 60.00056518 126.35507926 60.00512695 119.78613281 C60.01737305 118.86574219 60.02961914 117.94535156 60.04223633 116.99707031 C60.05364621 111.67246088 59.73579396 107.15509744 57.81762695 102.16113281 C54.93943919 100.72203893 52.44821773 101.02045019 49.23168945 101.00341797 C48.55495682 100.99833725 47.87822418 100.99325653 47.1809845 100.98802185 C45.70830587 100.97730945 44.23561087 100.96869269 42.76290894 100.96190262 C40.424373 100.95010321 38.08602089 100.93064314 35.74755859 100.90878296 C29.09731268 100.84723529 22.44708144 100.79332183 15.79663086 100.75976562 C11.72872956 100.73868824 7.66115693 100.7032719 3.59344482 100.65900803 C2.0499054 100.64493936 0.50630775 100.63614645 -1.03729248 100.63295364 C-22.80876204 100.58319711 -22.80876204 100.58319711 -31.18237305 93.16113281 C-43.88726451 76.71032741 -42.63179219 51.5277849 -40.61987305 31.78613281 C-39.27966438 22.4613007 -35.78711244 13.04746637 -28.74487305 6.47363281 C-20.21745737 0.26841516 -10.16958083 0.01396065 0 0 Z " fill="#130871" transform="translate(414.182373046875,10.8388671875)"/>
<path d="M0 0 C1.07870361 -0.00671722 2.15740723 -0.01343445 3.26879883 -0.02035522 C6.82548657 -0.03931588 10.38198561 -0.04325769 13.9387207 -0.04541016 C16.41160663 -0.05183661 18.88449178 -0.05856485 21.3573761 -0.06558228 C26.53465541 -0.07754818 31.711868 -0.08126351 36.88916016 -0.08007812 C43.53423321 -0.07987433 50.17870123 -0.10724174 56.82367229 -0.14162254 C61.92706789 -0.16381259 67.03035969 -0.16791819 72.1337986 -0.16685867 C74.58469935 -0.16922403 77.03560256 -0.1780997 79.48645592 -0.19352341 C82.90534085 -0.21303443 86.32328872 -0.20740486 89.7421875 -0.1953125 C91.26876732 -0.21217102 91.26876732 -0.21217102 92.82618713 -0.22937012 C93.75561127 -0.22098114 94.6850354 -0.21259216 95.6426239 -0.20394897 C96.45061778 -0.20503851 97.25861166 -0.20612804 98.0910902 -0.2072506 C100.17700195 0.29052734 100.17700195 0.29052734 101.93613911 2.16506004 C103.47421263 4.79961792 103.5642251 6.53215268 103.57543945 9.57177734 C103.57930664 10.57853516 103.58317383 11.58529297 103.5871582 12.62255859 C103.56975586 14.19070312 103.56975586 14.19070312 103.55200195 15.79052734 C103.56360352 16.83595703 103.57520508 17.88138672 103.5871582 18.95849609 C103.58329102 19.96525391 103.57942383 20.97201172 103.57543945 22.00927734 C103.57205566 22.92644531 103.56867188 23.84361328 103.56518555 24.78857422 C103.06921243 27.98526131 102.5809659 29.0867605 100.17700195 31.29052734 C97.03889251 31.67100665 94.25359386 31.79605259 91.11572266 31.74462891 C89.72518173 31.74550507 89.72518173 31.74550507 88.30654907 31.74639893 C85.23824799 31.74360917 82.17091485 31.71247482 79.1027832 31.68115234 C76.97715282 31.67369313 74.85151557 31.66799869 72.72587585 31.66400146 C67.12793024 31.64872002 61.53039896 31.60941631 55.93261719 31.56518555 C50.22181809 31.52428711 44.51095212 31.50600204 38.80004883 31.48583984 C27.59218437 31.44292472 16.3846276 31.37464283 5.17700195 31.29052734 C5.26482837 34.12520076 5.37181097 36.95706151 5.48950195 39.79052734 C5.51206055 40.58201172 5.53461914 41.37349609 5.55786133 42.18896484 C5.84993349 48.66765645 7.02804292 54.26606649 10.86450195 59.66552734 C16.25753175 63.45522396 22.99237954 63.58277034 29.38134766 63.54589844 C30.15798264 63.54951889 30.93461761 63.55313934 31.73478699 63.55686951 C33.40545294 63.56371523 35.07614102 63.56627809 36.74682045 63.56492233 C39.39062606 63.56395094 42.03403201 63.57696768 44.67778015 63.59390259 C52.18863965 63.64001555 59.69945277 63.66481037 67.21044922 63.67138672 C71.81692885 63.67639097 76.42298238 63.70057168 81.02931786 63.73671341 C82.78240595 63.74652407 84.5355525 63.74883646 86.28866005 63.74354172 C88.73278399 63.73649902 91.17562628 63.7536893 93.61962891 63.77636719 C94.3443338 63.76819473 95.0690387 63.76002228 95.81570435 63.75160217 C99.0367651 63.80493608 100.73538047 63.87310235 103.12507629 66.13186646 C104.58540813 69.12861931 104.56580707 71.55789594 104.57543945 74.88427734 C104.57930664 76.16173828 104.58317383 77.43919922 104.5871582 78.75537109 C104.58087402 79.41778809 104.57458984 80.08020508 104.56811523 80.76269531 C104.55205081 82.78437823 104.5679796 84.80406247 104.5871582 86.82568359 C104.58329102 88.10314453 104.57942383 89.38060547 104.57543945 90.69677734 C104.57205566 91.8653125 104.56867188 93.03384766 104.56518555 94.23779297 C104.11790183 97.75529961 103.77429352 98.89638178 101.17700195 101.29052734 C98.27323428 101.68757367 95.74654751 101.82716784 92.84106445 101.79223633 C91.99022781 101.79763931 91.13939117 101.8030423 90.26277161 101.80860901 C87.44216379 101.82114173 84.62256853 101.8045643 81.80200195 101.78662109 C79.83723904 101.78677609 77.87247582 101.78826519 75.90771484 101.79103088 C71.78168277 101.7924173 67.65599723 101.77982533 63.5300293 101.75708008 C58.26566867 101.72884399 53.00189047 101.73138888 47.73748779 101.74417019 C43.67428711 101.75116359 39.61121848 101.74329401 35.54803467 101.73091316 C33.60895293 101.72642357 31.66985686 101.72603987 29.73077393 101.72997856 C15.36969451 101.74547936 0.33172327 101.40128921 -11.04956055 91.31787109 C-23.16301931 78.4558278 -25.90984077 61.87563802 -26.0612793 44.78662109 C-26.06935104 43.90450455 -26.07742279 43.022388 -26.08573914 42.11354065 C-26.09948414 40.26052768 -26.11024851 38.4074904 -26.11816406 36.55444336 C-26.1297315 34.66829963 -26.15025765 32.78218982 -26.1796875 30.89624023 C-26.22242667 28.15114421 -26.23853467 25.40700871 -26.2487793 22.66162109 C-26.26628738 21.82602158 -26.28379547 20.99042206 -26.30183411 20.12950134 C-26.28055866 14.35169929 -25.12675279 11.05324086 -21.82299805 6.29052734 C-15.40240177 0.03889412 -8.47717482 -0.00759501 0 0 Z " fill="#130871" transform="translate(748.822998046875,79.70947265625)"/>
<path d="M0 0 C1.07870361 -0.00511093 2.15740723 -0.01022186 3.26879883 -0.01548767 C6.82549624 -0.02936059 10.3819995 -0.02842925 13.9387207 -0.02612305 C16.41160657 -0.03000991 18.88449177 -0.03434456 21.3573761 -0.03910828 C26.5346595 -0.04656456 31.71187469 -0.04628248 36.88916016 -0.04101562 C43.53414779 -0.0352076 50.1787313 -0.05218698 56.82367229 -0.0753603 C61.92706442 -0.09006315 67.03038905 -0.09097429 72.1337986 -0.08785057 C74.58468999 -0.08836505 77.03558503 -0.09362645 79.48645592 -0.10366249 C82.90521931 -0.11594886 86.32343342 -0.10928303 89.7421875 -0.09765625 C91.26876732 -0.10912186 91.26876732 -0.10912186 92.82618713 -0.12081909 C94.22032333 -0.11029762 94.22032333 -0.11029762 95.6426239 -0.0995636 C96.85461472 -0.09981521 96.85461472 -0.09981521 98.0910902 -0.10007191 C100.70440715 0.36940555 101.58963418 1.17880141 103.17700195 3.2746582 C103.56518555 5.86254883 103.56518555 5.86254883 103.57543945 8.9309082 C103.57930664 10.03563477 103.58317383 11.14036133 103.5871582 12.27856445 C103.56975586 14.00913086 103.56975586 14.00913086 103.55200195 15.7746582 C103.56360352 16.92836914 103.57520508 18.08208008 103.5871582 19.27075195 C103.58329102 20.37547852 103.57942383 21.48020508 103.57543945 22.6184082 C103.57205566 23.6309668 103.56867188 24.64352539 103.56518555 25.68676758 C103.10974727 28.72302277 102.54179527 29.4051545 100.17700195 31.2746582 C97.11833154 31.55548124 94.26562642 31.65322659 91.20751953 31.61523438 C90.29024582 31.61567245 89.37297211 31.61611053 88.42790222 31.61656189 C85.39223029 31.61446979 82.3571088 31.59111871 79.3215332 31.56762695 C77.21832074 31.5620325 75.11510437 31.55776169 73.0118866 31.55476379 C67.47320788 31.54330317 61.93476476 31.51382539 56.3961792 31.48065186 C50.74567858 31.44997728 45.09513994 31.43626404 39.44458008 31.42114258 C28.3552838 31.38895696 17.26616246 31.33774581 6.17700195 31.2746582 C6.14306222 33.8216469 6.11836302 36.36817624 6.09887695 38.9152832 C6.08840332 39.63022949 6.07792969 40.34517578 6.06713867 41.08178711 C6.02780051 47.95022944 6.95780409 53.98695766 10.86450195 59.7746582 C16.38164851 63.35334786 22.98027995 63.56876713 29.38134766 63.54589844 C30.15798264 63.55112518 30.93461761 63.55635193 31.73478699 63.56173706 C33.40544448 63.5719075 35.07613305 63.5777452 36.74682045 63.57961845 C39.3906223 63.58330471 42.03405661 63.60008833 44.67778015 63.62037659 C52.18860058 63.67560315 59.69947178 63.70657647 67.21044922 63.73095703 C71.81687436 63.74680571 76.42303137 63.77698175 81.02931786 63.81572151 C82.78240306 63.82738037 84.53553608 63.83330194 86.28866005 63.83340263 C88.73260326 63.8335941 91.17580116 63.85181192 93.61962891 63.87402344 C94.3443338 63.86944626 95.0690387 63.86486908 95.81570435 63.8601532 C98.70287255 63.90199653 100.70134785 63.95019228 103.12507629 65.60353088 C104.86692863 68.37070079 104.56681226 71.02094441 104.57543945 74.2434082 C104.57974472 75.2584845 104.57974472 75.2584845 104.58413696 76.29406738 C104.58617593 77.7229903 104.58065764 79.15194123 104.56811523 80.58081055 C104.55205706 82.76715545 104.56796729 84.95165199 104.5871582 87.13793945 C104.58517574 88.52726645 104.58133199 89.91659229 104.57543945 91.3059082 C104.57205566 92.56983398 104.56867188 93.83375977 104.56518555 95.13598633 C104.17700195 98.2746582 104.17700195 98.2746582 103.17076111 99.9455719 C99.99139275 102.06501292 96.58421124 101.69952065 92.88867188 101.67871094 C92.04265411 101.68557419 91.19663635 101.69243744 90.32498169 101.69950867 C87.51897515 101.71785242 84.71352457 101.71392394 81.9074707 101.70825195 C79.94989338 101.7128145 77.99231766 101.7181203 76.03474426 101.72413635 C71.92137168 101.73308556 67.80819298 101.7306289 63.69482422 101.72070312 C58.45758629 101.70928972 53.22103028 101.72929762 47.98388195 101.75862026 C43.9334343 101.77710586 39.88314571 101.77666403 35.8326664 101.77098274 C33.90442266 101.77083061 31.97616739 101.77678441 30.0479641 101.78927422 C14.64475957 101.87488785 0.24192545 101.13531947 -11.82299805 90.2746582 C-25.66718305 76.12486205 -26.36731961 53.76374214 -26.26904297 35.12084961 C-26.26037935 32.61533187 -26.28971041 30.11199293 -26.32104492 27.60668945 C-26.32265409 25.9829922 -26.32208487 24.35929099 -26.3190918 22.7355957 C-26.33032578 22.00214935 -26.34155975 21.268703 -26.35313416 20.51303101 C-26.26483228 13.90437301 -24.14608608 8.59774624 -19.44799805 3.8996582 C-13.13166201 -0.01045458 -7.20920239 -0.01765457 0 0 Z " fill="#130871" transform="translate(226.822998046875,79.725341796875)"/>
<path d="M0 0 C0.94617188 -0.020625 1.89234375 -0.04125 2.8671875 -0.0625 C3.785 -0.06765625 4.7028125 -0.0728125 5.6484375 -0.078125 C6.90019775 -0.09214355 6.90019775 -0.09214355 8.17724609 -0.10644531 C11.53719716 0.38283541 13.04180532 0.97868749 15.625 3.25 C16.41217229 6.54387624 16.30408951 9.81813 16.26855469 13.19067383 C16.2774321 14.21225586 16.28630951 15.23383789 16.29545593 16.28637695 C16.31922577 19.67692148 16.30791876 23.06643605 16.296875 26.45703125 C16.30745518 28.8181826 16.32036684 31.17932456 16.33551025 33.54045105 C16.36981679 39.7740739 16.3750908 46.00738447 16.37359619 52.24108887 C16.37636128 59.76813293 16.40927073 67.29508873 16.44166946 74.82205486 C16.46689515 80.69040345 16.48646827 86.55854894 16.48748779 92.42695618 C15.16763309 115.05430711 15.16763309 115.05430711 23.0625 135.1875 C27.40592106 138.68342427 31.58637669 138.395988 36.9921875 138.3918457 C37.7276178 138.39532013 38.4630481 138.39879456 39.22076416 138.40237427 C40.81401823 138.40971258 42.4072824 138.41506819 44.00054932 138.41866493 C46.5224228 138.42584509 49.04410338 138.44152152 51.56591797 138.46000671 C58.7346743 138.51241559 65.90332164 138.56048159 73.07226562 138.57592773 C77.46020939 138.58600115 81.84766256 138.61530315 86.2354126 138.65724754 C87.90672091 138.66956588 89.57809846 138.67467727 91.24945068 138.67244911 C93.5861058 138.67009963 95.92134819 138.69223107 98.2578125 138.7199707 C98.94780334 138.71336929 99.63779419 138.70676788 100.34869385 138.69996643 C103.68534223 138.76504869 105.3777366 139.05946665 108.05310059 141.12101746 C110.04644279 143.82080264 110.14055688 145.41409176 110.15625 148.75 C110.16398438 150.3278125 110.16398438 150.3278125 110.171875 151.9375 C110.15640625 153.030625 110.1409375 154.12375 110.125 155.25 C110.14820313 156.8896875 110.14820313 156.8896875 110.171875 158.5625 C110.16671875 159.614375 110.1615625 160.66625 110.15625 161.75 C110.15173828 162.7090625 110.14722656 163.668125 110.14257812 164.65625 C109.45588293 168.09749991 108.39199181 169.10936799 105.625 171.25 C102.36639404 171.75120544 102.36639404 171.75120544 98.44824219 171.75170898 C97.7320874 171.75711197 97.01593262 171.76251495 96.27807617 171.76808167 C93.9089219 171.78058956 91.54097986 171.76404577 89.171875 171.74609375 C87.51198259 171.7462489 85.85208982 171.74774044 84.19219971 171.75050354 C80.70511944 171.75188914 77.21844955 171.73931892 73.73144531 171.71655273 C69.30720218 171.68843254 64.88365442 171.69083036 60.45936203 171.70364285 C57.02388815 171.71067969 53.58856848 171.70271645 50.15311432 171.69038582 C48.52518561 171.68592958 46.89723996 171.68548231 45.26931 171.68945122 C29.39682112 171.71000168 11.92746332 171.07331166 -0.71484375 160.24609375 C-13.92126734 146.49862487 -15.52810791 126.76070369 -15.52026367 108.62744141 C-15.52362228 107.49953186 -15.5269809 106.37162231 -15.53044128 105.20953369 C-15.53988839 101.50686524 -15.54189062 97.80424223 -15.54296875 94.1015625 C-15.54618343 91.52086366 -15.54954767 88.94016501 -15.55305481 86.35946655 C-15.55902881 80.96473692 -15.56093924 75.57002524 -15.56030273 70.17529297 C-15.55969983 63.93978428 -15.57030181 57.70436149 -15.5860464 51.46887457 C-15.60068125 45.4583401 -15.60429143 39.4478525 -15.60369301 33.43729782 C-15.60487545 30.88313824 -15.60931192 28.32897807 -15.61702538 25.77482986 C-15.62677696 22.21520977 -15.62396737 18.6558148 -15.61791992 15.09619141 C-15.62353943 14.03643097 -15.62915894 12.97667053 -15.63494873 11.88479614 C-15.63075424 10.91763672 -15.62655975 9.95047729 -15.62223816 8.95401001 C-15.62278293 8.11304087 -15.62332769 7.27207172 -15.62388897 6.40561867 C-15.375 4.25 -15.375 4.25 -13.375 1.25 C-8.95269405 -0.22410198 -4.63271583 0.02504171 0 0 Z " fill="#130871" transform="translate(910.375,10.75)"/>
<path d="M0 0 C1.36163521 -0.00031393 1.36163521 -0.00031393 2.7507782 -0.00063419 C3.79392181 -0.01046833 4.83706543 -0.02030247 5.91181946 -0.03043461 C7.05581207 -0.02076664 8.19980469 -0.01109867 9.37846375 -0.00113773 C10.5835257 -0.00654072 11.78858765 -0.0119437 13.03016663 -0.01751041 C16.33623201 -0.02788545 19.64129905 -0.02028329 22.94727707 -0.0037992 C26.4052192 0.01004106 29.86313087 0.0035924 33.3210907 0.00006771 C39.12838623 -0.00263524 44.93547518 0.01084828 50.74272156 0.03401852 C57.45873225 0.06062898 64.1743975 0.06237578 70.89044285 0.05063015 C77.3484394 0.03985449 83.80631087 0.04603772 90.26429749 0.06018543 C93.01385959 0.06594713 95.76333022 0.06586115 98.51289368 0.06112003 C102.35102939 0.0554659 106.18881881 0.07465929 110.02690125 0.09651852 C111.74289017 0.08976604 111.74289017 0.08976604 113.49354553 0.08287716 C115.05826096 0.09773411 115.05826096 0.09773411 116.65458679 0.1128912 C117.5623436 0.11532109 118.4701004 0.11775099 119.40536499 0.12025452 C122.16486848 0.5770853 123.05807734 1.27077857 124.7026825 3.50057125 C125.07499695 6.08846188 125.07499695 6.08846188 125.06596375 9.15682125 C125.06499695 10.81391109 125.06499695 10.81391109 125.06401062 12.5044775 C125.04789734 13.65818844 125.03178406 14.81189938 125.0151825 16.00057125 C125.01840515 17.15428219 125.02162781 18.30799313 125.02494812 19.496665 C124.96973423 28.09999366 124.96973423 28.09999366 122.7026825 31.50057125 C119.29385553 32.63684691 116.71426094 32.61889881 113.11894226 32.60921383 C112.44756414 32.60868448 111.77618603 32.60815514 111.08446312 32.60760975 C108.83346204 32.60435695 106.58256432 32.59361839 104.33158875 32.5826025 C102.72462036 32.57805778 101.11765109 32.57381785 99.51068115 32.56986141 C95.1510132 32.55723631 90.79141233 32.53700352 86.43178558 32.51443386 C83.70379046 32.50057688 80.97579215 32.48839866 78.24778748 32.47658443 C67.92031297 32.43021938 57.59324668 32.36181357 47.266119 32.26483631 C42.40896814 32.21942632 37.55192263 32.18018339 32.69462585 32.1541357 C27.88730364 32.12822253 23.08030341 32.0880148 18.27318001 32.03738499 C16.46428419 32.02076105 14.65533397 32.00921901 12.8463726 32.00295734 C10.35272699 31.99339261 7.85993754 31.96546494 5.36650085 31.9329443 C4.62968079 31.93437939 3.89286072 31.93581448 3.13371277 31.93729305 C0.20091195 31.88287387 -1.81025694 31.84243564 -4.25204468 30.12856197 C-5.77218909 27.76096861 -5.68594209 25.89467601 -5.695755 23.0982275 C-5.69962219 22.04312984 -5.70348938 20.98803219 -5.70747375 19.90096188 C-5.69007141 18.24870602 -5.69007141 18.24870602 -5.6723175 16.56307125 C-5.68391907 15.46543453 -5.69552063 14.36779781 -5.70747375 13.23689938 C-5.70360657 12.18051266 -5.69973938 11.12412594 -5.695755 10.0357275 C-5.69237122 9.07030025 -5.68898743 8.10487301 -5.6855011 7.11019039 C-5.12263414 3.32623759 -3.90989476 0.85194184 0 0 Z " fill="#130871" transform="translate(206.2973175048828,10.499428749084473)"/>
<path d="M0 0 C1.0332843 -0.00990463 2.0665686 -0.01980927 3.13116455 -0.03001404 C4.8307708 -0.02326157 4.8307708 -0.02326157 6.56471252 -0.01637268 C7.75841461 -0.02323593 8.9521167 -0.03009918 10.18199158 -0.03717041 C13.45688332 -0.05235134 16.73141902 -0.053928 20.00633121 -0.04822803 C22.73998545 -0.04514017 25.47358802 -0.05122415 28.20723492 -0.05726677 C34.65635311 -0.07132025 41.10533886 -0.06974414 47.55445862 -0.05836487 C54.2080138 -0.0468843 60.86116588 -0.06095599 67.51466793 -0.08776134 C73.22687445 -0.10991293 78.9389544 -0.11655694 84.65120083 -0.11068493 C88.06299016 -0.10731259 91.47452111 -0.10974822 94.88627434 -0.12693596 C98.69085275 -0.14176905 102.49453759 -0.131224 106.29908752 -0.11402893 C107.99565742 -0.12853088 107.99565742 -0.12853088 109.72650146 -0.14332581 C111.28065765 -0.1285746 111.28065765 -0.1285746 112.86621094 -0.11352539 C113.76567161 -0.11331611 114.66513227 -0.11310682 115.59184933 -0.1128912 C118.77666248 0.55005807 119.98354475 1.88705952 121.99659729 4.38768005 C122.49830627 6.88963318 122.49830627 6.88963318 122.49269104 9.66893005 C122.49333557 10.67568787 122.4939801 11.68244568 122.49464417 12.7197113 C122.4746637 13.76514099 122.45468323 14.81057068 122.43409729 15.88768005 C122.44118713 16.93310974 122.44827698 17.97853943 122.45558167 19.0556488 C122.38234704 27.85507011 122.38234704 27.85507011 118.99659729 31.38768005 C115.65223477 32.50246756 113.17362803 32.50618543 109.64918518 32.49632263 C109.0014382 32.49579329 108.35369122 32.49526394 107.68631554 32.49471855 C105.5097506 32.49146247 103.33329218 32.4807158 101.15675354 32.4697113 C99.59816573 32.46516267 98.03957699 32.46092333 96.48098755 32.45697021 C92.21867053 32.44428226 87.95642094 32.42398179 83.6941452 32.40154266 C80.9787846 32.38758851 78.26342092 32.37543675 75.54804993 32.36369324 C65.09814514 32.31699824 54.64863876 32.24856099 44.19907188 32.15194511 C39.26448762 32.10653856 34.33000671 32.06730156 29.39527893 32.04124451 C24.51779369 32.01535308 19.64062692 31.97515711 14.76333809 31.92449379 C12.92570445 31.90784952 11.0880169 31.89632008 9.25031853 31.89006615 C6.71804588 31.88051832 4.1866224 31.85261035 1.65455627 31.8200531 C0.90321915 31.82148819 0.15188202 31.82292328 -0.6222229 31.82440186 C-2.69555664 31.78640747 -2.69555664 31.78640747 -6.00340271 31.38768005 C-9.18473505 26.61568154 -8.33157176 21.49720173 -8.31590271 15.88768005 C-8.33201599 14.73396912 -8.34812927 13.58025818 -8.36473083 12.3915863 C-8.36537537 11.28685974 -8.3660199 10.18213318 -8.36668396 9.04393005 C-8.36966492 8.03137146 -8.37264587 7.01881287 -8.37571716 5.97557068 C-7.63793015 0.84734618 -4.80002301 0.01297271 0 0 Z " fill="#130871" transform="translate(731.0034027099609,10.612319946289063)"/>
<path d="M0 0 C5.11688934 3.65193125 8.15993568 7.55534092 9.5625 13.75 C10.17050826 20.09675294 10.00909835 26.21941195 6.5625 31.75 C1.91940125 36.94658072 -2.68363296 40.31637024 -9.75 40.9609375 C-16.48798263 41.22799169 -22.2177137 40.56969451 -27.41796875 36.015625 C-32.39352096 30.7220478 -34.09983161 26.182962 -34.8125 18.9375 C-34.60806344 12.36997538 -32.14936591 6.62110925 -27.75 1.8125 C-19.00685135 -3.63134727 -9.30149508 -5.46333168 0 0 Z M-22.4375 9.75 C-24.81384512 13.82373449 -25.02563824 18.13537686 -24.4375 22.75 C-22.88234777 26.87115342 -21.38288641 29.66771273 -17.4375 31.75 C-13.47065425 32.77844149 -11.15562358 32.98937453 -7.25 31.6875 C-3.80714472 29.31575525 -2.25711446 27.52919927 -0.4375 23.75 C0.46455509 18.09441868 -0.21563598 13.58279603 -3.4375 8.75 C-7.21448552 5.31712162 -10.08582745 5.23832946 -15.02734375 5.3984375 C-18.5037542 5.90553141 -20.15829454 7.11466868 -22.4375 9.75 Z " fill="#130871" transform="translate(665.4375,218.25)"/>
<path d="M0 0 C4.0089722 3.39891121 7.32738018 6.98214055 9 12 C9.61573279 19.94396237 10.07279161 27.45178861 5 34 C0.03350849 38.96649151 -5.40613247 41.14932407 -12.3125 41.5 C-19.03113241 41.28744354 -24.99816851 39.15364825 -29.69921875 34.21484375 C-34.81195786 27.3148434 -34.80993206 20.30180356 -34 12 C-31.95682866 6.31082462 -27.91752008 2.34391365 -23 -1 C-14.98505279 -4.06025257 -7.69159675 -3.64338793 0 0 Z M-23 11 C-24.33827901 13.67655801 -24.20578556 15.82434052 -24.25 18.8125 C-24.27578125 19.85019531 -24.3015625 20.88789063 -24.328125 21.95703125 C-23.95357055 25.43057792 -23.09686829 27.22844493 -21 30 C-17.23506872 32.17207574 -14.7289874 33 -10.375 33 C-6.25169773 31.77828081 -4.6289116 30.3800292 -2 27 C0.30037841 22.29468052 0.55952435 17.96481486 -1 13 C-2.82650203 10.04311036 -4.83854011 7.58072994 -8 6 C-14.79842667 5.04822027 -18.27234608 6.03596338 -23 11 Z " fill="#130871" transform="translate(513,218)"/>
<path d="M0 0 C3.3 0 6.6 0 10 0 C10 5.61 10 11.22 10 17 C15.61 17 21.22 17 27 17 C27 11.39 27 5.78 27 0 C30.3 0 33.6 0 37 0 C37 13.86 37 27.72 37 42 C33.7 42 30.4 42 27 42 C27 36.39 27 30.78 27 25 C21.39 25 15.78 25 10 25 C10 30.61 10 36.22 10 42 C6.7 42 3.4 42 0 42 C0 28.14 0 14.28 0 0 Z " fill="#130871" transform="translate(316,216)"/>
<path d="M0 0 C7 0 7 0 9.08203125 1.51171875 C9.65308594 2.22972656 10.22414063 2.94773438 10.8125 3.6875 C11.47121094 4.49832031 12.12992187 5.30914062 12.80859375 6.14453125 C13.53175781 7.08683594 14.25492187 8.02914062 15 9 C15.88602211 10.12945309 16.7727736 11.25833429 17.66015625 12.38671875 C20.88482165 16.51625004 24.09226739 20.63840109 27 25 C27.33 16.75 27.66 8.5 28 0 C30.64 0 33.28 0 36 0 C36 13.86 36 27.72 36 42 C28 42 28 42 25.99365234 40.55053711 C25.52910645 39.8828833 25.06456055 39.21522949 24.5859375 38.52734375 C24.05226563 37.79193359 23.51859375 37.05652344 22.96875 36.29882812 C22.17984375 35.1299707 22.17984375 35.1299707 21.375 33.9375 C20.30143309 32.42439302 19.2259271 30.91265988 18.1484375 29.40234375 C17.68614746 28.72679443 17.22385742 28.05124512 16.74755859 27.35522461 C14.33489375 24.10362113 11.63501215 21.07418084 9 18 C8.67 25.92 8.34 33.84 8 42 C5.36 42 2.72 42 0 42 C0 28.14 0 14.28 0 0 Z " fill="#130871" transform="translate(399,216)"/>
<path d="M0 0 C-0.61277612 2.96175123 -1.25372522 4.38058783 -3 7 C-7.75 6.125 -7.75 6.125 -10 5 C-15.47957298 4.38233477 -19.62589942 3.95568356 -24.125 7.375 C-27.57089642 12.19925499 -27.50494676 16.17934102 -27 22 C-25.71866686 25.16961356 -24.4799767 26.57820229 -21.9375 28.8125 C-17.64616711 30.54729415 -13.57011756 30.2395984 -9 30 C-9 28.02 -9 26.04 -9 24 C-9.804375 24.020625 -10.60875 24.04125 -11.4375 24.0625 C-14 24 -14 24 -15 23 C-15 20.69 -15 18.38 -15 16 C-10.05 16 -5.1 16 0 16 C0 22.27 0 28.54 0 35 C-7.97237326 38.98618663 -15.43870427 40.77421106 -24.1875 37.875 C-29.75595887 35.46275264 -33.7478281 32.01963209 -36.9375 26.875 C-39.19250977 20.51869121 -39.18602032 12.79732364 -36.4375 6.625 C-33.27384392 1.29673714 -29.03670411 -2.69033839 -23 -4.375 C-14.59443875 -5.93995094 -7.14129295 -4.76086197 0 0 Z " fill="#130871" transform="translate(754,220)"/>
<path d="M0 0 C9.24 0 18.48 0 28 0 C28 2.64 28 5.28 28 8 C22.06 8 16.12 8 10 8 C10 10.97 10 13.94 10 17 C14.62 17 19.24 17 24 17 C24 19.64 24 22.28 24 25 C19.38 25 14.76 25 10 25 C10 28.3 10 31.6 10 35 C15.94 35 21.88 35 28 35 C28 37.31 28 39.62 28 42 C18.76 42 9.52 42 0 42 C0 28.14 0 14.28 0 0 Z " fill="#130871" transform="translate(853,216)"/>
<path d="M0 0 C9.24 0 18.48 0 28 0 C28 2.64 28 5.28 28 8 C22.06 8 16.12 8 10 8 C10 10.97 10 13.94 10 17 C14.62 17 19.24 17 24 17 C24 19.64 24 22.28 24 25 C19.38 25 14.76 25 10 25 C10 28.3 10 31.6 10 35 C15.94 35 21.88 35 28 35 C28 37.31 28 39.62 28 42 C18.76 42 9.52 42 0 42 C0 28.14 0 14.28 0 0 Z " fill="#130871" transform="translate(169,216)"/>
<path d="M0 0 C0.8971875 0.7115625 0.8971875 0.7115625 1.8125 1.4375 C1.0625 6.1875 1.0625 6.1875 -1.1875 8.4375 C-3.375 8.125 -3.375 8.125 -6.1875 7.4375 C-10.81441037 6.38229489 -10.81441037 6.38229489 -15.1875 7.4375 C-15.14417254 9.87110817 -15.14417254 9.87110817 -14.1875 12.4375 C-11.57345709 13.99511732 -11.57345709 13.99511732 -8.375 15 C-4.03572324 16.5274677 -1.07493051 17.7742412 1.8125 21.4375 C3.24220269 25.73442065 3.13387472 29.49123001 1.6875 33.75 C-1.02948638 37.64434715 -3.67336997 39.93278999 -8.1875 41.4375 C-14.75728214 42.24223235 -20.62329676 41.15110886 -26.1875 37.4375 C-26.6825 35.9525 -26.6825 35.9525 -27.1875 34.4375 C-25.25 31.75 -25.25 31.75 -23.1875 29.4375 C-17.4375 31.3125 -17.4375 31.3125 -15.1875 32.4375 C-13.18789988 32.477492 -11.18702758 32.48096799 -9.1875 32.4375 C-8.5275 30.7875 -7.8675 29.1375 -7.1875 27.4375 C-10.06826053 25.07687679 -12.67722808 23.77183148 -16.1875 22.5625 C-20.4350646 20.88978651 -23.10180461 19.70369511 -25.1875 15.4375 C-26.0017587 10.75984364 -25.62396464 7.38026361 -23.625 3.0625 C-17.18727488 -3.87043475 -8.28095948 -4.05929386 0 0 Z " fill="#130871" transform="translate(948.1875,217.5625)"/>
<path d="M0 0 C-0.89818082 2.84423926 -1.47391464 4.59666789 -3.875 6.4375 C-6 7 -6 7 -7.85546875 6.0625 C-11.46364532 4.27484239 -15.0746138 4.29329054 -19 5 C-21.75569447 7.18159145 -23.43588747 8.87177494 -25 12 C-25.55258891 17.03671207 -25.53929549 20.92140903 -23.25 25.5 C-20.59846019 28.57306902 -20.59846019 28.57306902 -17 30 C-12.6132057 29.90212021 -9.69835923 29.46557282 -6 27 C-3.03923709 27.35888035 -2.15341979 27.84658021 0 30 C-0.22763346 32.35221237 -0.79435338 33.71858884 -2.1875 35.625 C-7.40099892 39.58006815 -13.72957763 39.64694834 -20 39 C-25.3347065 37.58908342 -30.18767144 34.83694569 -33.1953125 30.12890625 C-36.8376283 22.98436371 -37.27547759 15.43903213 -35 7.75 C-32.42714137 1.85184296 -27.41866887 -1.90475372 -21.6875 -4.5 C-13.45370082 -5.61644735 -6.86887002 -4.73188824 0 0 Z " fill="#130871" transform="translate(274,220)"/>
<path d="M0 0 C11.22 0 22.44 0 34 0 C34 2.64 34 5.28 34 8 C30.04 8 26.08 8 22 8 C22 19.22 22 30.44 22 42 C18.7 42 15.4 42 12 42 C12 30.78 12 19.56 12 8 C8.04 8 4.08 8 0 8 C0 5.36 0 2.72 0 0 Z " fill="#130871" transform="translate(93,216)"/>
<path d="M0 0 C2.97 0 5.94 0 9 0 C9 11.22 9 22.44 9 34 C14.28 34 19.56 34 25 34 C26 35 26 35 26 42 C17.42 42 8.84 42 0 42 C0 28.14 0 14.28 0 0 Z " fill="#130871" transform="translate(566,216)"/>
<path d="M0 0 C3.3 0 6.6 0 10 0 C10 13.86 10 27.72 10 42 C6.7 42 3.4 42 0 42 C0 28.14 0 14.28 0 0 Z " fill="#130871" transform="translate(798,216)"/>
</svg>